Coordinates
version=1
nRows=60
nColumns=12
inDegrees=yes

Units are S.I. units (second, meters, Newtons, ...)
Angles are in degrees

endheader
time	SC_y	SC_z	SC_x	AC_y	AC_z	AC_x	GH_y	GH_z	GH_yy	EL_x	PS_y
       0.0               -49.6          23.26          25.89           43.0          4.072          7.693          149.0          20.77         -117.2          114.0          62.98
   0.03165               -49.6          23.26          25.89           43.0          4.069          7.692          148.9          20.77         -117.2          114.0          62.98
   0.06329               -49.6          23.26          25.89           43.0          4.066          7.691          148.9          20.78         -117.2          114.0          62.97
   0.09494               -49.6          23.25           25.9           43.0          4.062          7.691          148.9          20.79         -117.1          114.0          62.97
    0.1266               -49.6          23.25           25.9           43.0          4.059           7.69          148.9          20.79         -117.1          114.0          62.97
    0.1582               -49.6          23.25          25.91           43.0          4.055          7.689          148.8           20.8         -117.1          114.0          62.97
    0.1899               -49.6          23.25          25.92           43.0          4.051          7.688          148.8          20.81         -117.1          114.0          62.96
    0.2215               -49.6          23.25          25.92           43.0          4.046          7.687          148.7          20.82         -117.1          114.0          62.96
    0.2532               -49.6          23.25          25.93           43.0          4.042          7.686          148.7          20.83         -117.0          114.0          62.95
    0.2848               -49.6          23.25          25.93           43.0          4.036          7.685          148.6          20.84         -117.0          114.0          62.95
    0.3165               -49.6          23.25          25.94           43.0          4.031          7.684          148.6          20.85         -117.0          114.0          62.95
    0.3481               -49.6          23.25          25.95           43.0          4.025          7.683          148.5          20.86         -117.0          114.0          62.94
    0.3798               -49.6          23.24          25.96           43.0          4.019          7.682          148.5          20.87         -116.9          114.0          62.94
    0.4114               -49.6          23.24          25.97           43.0          4.012           7.68          148.4          20.88         -116.9          114.0          62.93
    0.4431               -49.6          23.24          25.98           43.0          4.005          7.679          148.3           20.9         -116.9          114.1          62.93
    0.4747              -49.59          23.24          25.99           43.0          3.997          7.677          148.3          20.91         -116.8          114.1          62.92
    0.5063              -49.59          23.24           26.0          43.01          3.988          7.675          148.2          20.93         -116.8          114.1          62.91
     0.538              -49.59          23.23          26.01          43.01          3.979          7.673          148.1          20.95         -116.7          114.1           62.9
    0.5696              -49.59          23.23          26.03          43.01          3.968          7.671          148.0          20.97         -116.7          114.1           62.9
    0.6013              -49.59          23.23          26.04          43.01          3.957          7.669          147.9          20.99         -116.6          114.1          62.89
    0.6329              -49.59          23.23          26.06          43.01          3.945          7.666          147.8          21.01         -116.6          114.1          62.88
    0.6646              -49.59          23.22          26.08          43.01          3.931          7.663          147.6          21.04         -116.5          114.1          62.87
    0.6962              -49.59          23.22           26.1          43.01          3.916           7.66          147.5          21.06         -116.4          114.1          62.85
    0.7279              -49.59          23.22          26.12          43.02          3.899          7.657          147.3           21.1         -116.4          114.2          62.84
    0.7595              -49.59          23.21          26.15          43.02           3.88          7.653          147.1          21.13         -116.3          114.2          62.82
    0.7912              -49.59          23.21          26.18          43.02           3.86          7.649          146.9          21.17         -116.2          114.2          62.81
    0.8228              -49.59           23.2          26.21          43.02          3.836          7.644          146.7          21.22         -116.1          114.2          62.79
    0.8545              -49.59          23.19          26.24          43.02           3.81          7.638          146.5          21.27         -115.9          114.2          62.77
    0.8861              -49.59          23.19          26.28          43.03          3.781          7.632          146.2          21.32         -115.8          114.3          62.74
    0.9178              -49.58          23.18          26.33          43.03          3.747          7.625          145.9          21.39         -115.6          114.3          62.72
    0.9494              -49.58          23.17          26.38          43.04          3.709          7.617          145.5          21.46         -115.4          114.3          62.69
     0.981              -49.58          23.16          26.44          43.04          3.665          7.608          145.1          21.54         -115.2          114.4          62.65
     1.013              -49.58          23.15          26.51          43.05          3.614          7.598          144.6          21.64         -115.0          114.4          62.61
     1.044              -49.58          23.13          26.59          43.05          3.555          7.585          144.0          21.75         -114.7          114.5          62.56
     1.076              -49.57          23.12          26.69          43.06          3.486          7.571          143.4          21.88         -114.3          114.6          62.51
     1.108              -49.57           23.1           26.8          43.07          3.405          7.554          142.6          22.04         -114.0          114.6          62.44
     1.139              -49.57          23.08          26.93          43.08          3.309          7.534          141.6          22.22         -113.5          114.7          62.36
     1.171              -49.56          23.05          27.09          43.09          3.193           7.51          140.5          22.44         -112.9          114.9          62.27
     1.203              -49.56          23.01          27.28          43.11          3.053          7.481          139.2          22.71         -112.2          115.0          62.15
     1.234              -49.55          22.97          27.51          43.13          2.882          7.445          137.5          23.03         -111.4          115.2          62.02
     1.266              -49.54          22.92           27.8          43.15           2.67          7.401          135.5          23.43         -110.4          115.4          61.85
     1.298              -49.53          22.86          28.16          43.18          2.407          7.347          133.0          23.94         -109.1          115.6          61.63
     1.329              -49.52          22.78          28.61          43.22          2.075          7.278          129.8          24.57         -107.5          116.0          61.36
     1.361               -49.5          22.68          29.19          43.26          1.653           7.19          125.7          25.37         -105.4          116.4          61.02
     1.392              -49.48          22.55          29.92          43.32          1.113          7.078          120.6           26.4         -102.8          116.9          60.59
     1.424              -49.45          22.39          30.87           43.4         0.4207          6.933          113.9          27.71         -99.43          117.6          60.02
     1.456              -49.41          22.18          32.08           43.5        -0.4642          6.749          105.4           29.4         -95.13          118.5          59.31
     1.487              -49.37          21.92           33.6          43.62         -1.577          6.518           94.7          31.51         -89.71          119.6          58.41
     1.519              -49.31          21.59          35.45          43.77         -2.933          6.236          81.67          34.09         -83.12          120.9          57.31
     1.551              -49.25          21.22          37.59          43.95         -4.505          5.909          66.57          37.08         -75.47          122.5          56.04
     1.582              -49.18          20.82          39.92          44.14         -6.207          5.555          50.22          40.32         -67.19          124.2          54.66
     1.614              -49.11          20.41          42.24          44.33         -7.908          5.201          33.87          43.56         -58.91          125.9          53.28
     1.646              -49.04          20.04          44.38           44.5          -9.48          4.874          18.77          46.55         -51.26          127.4          52.01
     1.677              -48.99          19.72          46.23          44.65         -10.84          4.592          5.739          49.13         -44.66          128.8          50.91
     1.709              -48.94          19.45          47.75          44.78         -11.95          4.361         -4.952          51.24         -39.25          129.9          50.01
     1.741              -48.91          19.24          48.96          44.88         -12.83          4.177         -13.45          52.93         -34.95          130.7           49.3
     1.772              -48.88          19.08          49.91          44.95         -13.53          4.033         -20.11          54.25         -31.57          131.4          48.74
     1.804              -48.86          18.95          50.64          45.01         -14.07          3.921          -25.3          55.27         -28.95          132.0           48.3
     1.836              -48.84          18.85          51.22          45.06         -14.49          3.833         -29.35          56.07          -26.9          132.4          47.96
     1.867              -48.83          18.77          51.67           45.1         -14.82          3.764         -32.54          56.71         -25.28          132.7          47.69
